<svg width="868" height="263" viewBox="0 0 868 263" fill="none" xmlns="http://www.w3.org/2000/svg">
<path fill-rule="evenodd" clip-rule="evenodd" d="M131 263C203.349 263 262 204.125 262 131.5C262 58.8746 203.349 0 131 0C58.6507 0 0 58.8746 0 131.5C0 204.125 58.6507 263 131 263ZM131 166.984C150.523 166.984 166.349 151.097 166.349 131.5C166.349 111.903 150.523 96.0159 131 96.0159C111.477 96.0159 95.6508 111.903 95.6508 131.5C95.6508 151.097 111.477 166.984 131 166.984Z" fill="#FF1240"/>
<path d="M433.5 263C483.243 263 526.535 235.381 548.877 194.641L363.575 194.641C343.224 194.641 324.438 187.335 309.483 175.333C311.851 182.035 314.748 188.488 318.123 194.641C340.465 235.381 383.757 263 433.5 263Z" fill="#FF1240"/>
<path d="M433.502 -1.08419e-05C383.759 -1.51906e-05 340.467 27.6193 318.124 68.3591L503.426 68.3591C523.778 68.3591 542.563 75.6647 557.519 87.6667C555.15 80.9648 552.254 74.5123 548.879 68.3591C526.537 27.6193 483.245 -6.49328e-06 433.502 -1.08419e-05Z" fill="#FF1240"/>
<path d="M306.416 97.5813C303.535 108.402 302 119.772 302 131.5C302 143.228 303.535 154.598 306.416 165.419L560.584 165.419C563.465 154.598 565 143.228 565 131.5C565 119.772 563.465 108.402 560.584 97.5813L306.416 97.5813Z" fill="#FF1240"/>
<path d="M736.5 262C786.243 262 829.535 234.486 851.877 193.901L666.575 193.901C646.224 193.901 627.438 186.623 612.483 174.667C614.851 181.343 617.748 187.771 621.123 193.901C643.465 234.486 686.757 262 736.5 262Z" fill="#FF1240"/>
<path d="M736.502 -1.08007e-05C686.759 -1.51329e-05 643.467 27.5143 621.124 68.0992L806.426 68.0992C826.778 68.0992 845.563 75.377 860.519 87.3333C858.15 80.657 855.254 74.229 851.879 68.0992C829.537 27.5143 786.245 -6.46859e-06 736.502 -1.08007e-05Z" fill="#FF1240"/>
<path fill-rule="evenodd" clip-rule="evenodd" d="M605 131C605 119.316 606.535 107.99 609.416 97.2103L726.585 97.2103V164.79L609.416 164.79C606.535 154.01 605 142.684 605 131ZM746.937 97.2103V164.79H863.584C866.465 154.01 868 142.684 868 131C868 119.316 866.465 107.99 863.584 97.2103L746.937 97.2103Z" fill="#FF1240"/>
</svg>
